<svg width="22" height="22" viewBox="0 0 22 22" fill="none" xmlns="http://www.w3.org/2000/svg">
<mask id="mask0_785_20054" style="mask-type:alpha" maskUnits="userSpaceOnUse" x="0" y="0" width="22" height="22">
<rect x="-3.05176e-05" width="22" height="22" fill="#C4C4C4"/>
</mask>
<g mask="url(#mask0_785_20054)">
<g filter="url(#filter0_d_785_20054)">
<path d="M9.99594 10.3849C10.4293 10.94 10.3085 11.9202 9.75342 12.3536C9.19833 12.7869 8.21809 12.6661 7.78476 12.1111C7.35144 11.556 7.4722 10.5757 8.02729 10.1424C8.58237 9.70908 9.56261 9.82983 9.99594 10.3849Z" fill="white"/>
<path d="M1.86814 2.25254L4.27802 14.7677L10.0076 16.927L12.4006 19.9925L14.461 18.384L16.5215 16.7756L14.1284 13.7101L13.4242 7.62778L1.86814 2.25254L8.02729 10.1424C8.58237 9.70908 9.56261 9.82983 9.99594 10.3849C10.4293 10.94 10.3085 11.9202 9.75342 12.3536C9.19833 12.7869 8.21809 12.6661 7.78476 12.1111C7.35144 11.556 7.4722 10.5757 8.02729 10.1424L1.86814 2.25254Z" fill="white"/>
</g>
<g filter="url(#filter1_d_785_20054)">
<path fill-rule="evenodd" clip-rule="evenodd" d="M1.00631 1.14855L14.0165 7.20016L14.7411 13.4589L17.4163 16.8858L12.2904 20.8873L9.61522 17.4604L3.71942 15.2385L1.00631 1.14855ZM4.8366 14.2969L10.4 16.3936L12.5109 19.0976L15.6266 16.6654L13.5157 13.9613L12.8319 8.05542L3.99986 3.94723L8.20999 9.3404C8.51533 9.24397 8.83768 9.22361 9.13522 9.26027C9.63088 9.32133 10.155 9.55259 10.4985 9.99263C10.842 10.4327 10.9391 10.9972 10.8781 11.4929C10.817 11.9885 10.5858 12.5126 10.1457 12.8561C9.70567 13.1996 9.14114 13.2968 8.64548 13.2357C8.14981 13.1747 7.62574 12.9434 7.28222 12.5034C6.93871 12.0633 6.84156 11.4988 6.90262 11.0031C6.93927 10.7056 7.03725 10.3978 7.20491 10.125L2.99478 4.73184L4.8366 14.2969ZM8.16812 11.159C8.13836 11.4006 8.19749 11.6037 8.2873 11.7188C8.37711 11.8338 8.55982 11.9405 8.80138 11.9702C9.04293 12 9.24606 11.9409 9.36111 11.851C9.47616 11.7612 9.58282 11.5785 9.61258 11.337C9.64234 11.0954 9.58321 10.8923 9.49339 10.7772C9.40358 10.6622 9.22088 10.5555 8.97932 10.5258C8.73776 10.496 8.53463 10.5551 8.41959 10.6449C8.30454 10.7348 8.19787 10.9175 8.16812 11.159Z" fill="white"/>
</g>
<path d="M9.99594 10.3849C10.4293 10.94 10.3085 11.9202 9.75342 12.3536C9.19833 12.7869 8.21809 12.6661 7.78476 12.1111C7.35144 11.556 7.4722 10.5757 8.02729 10.1424C8.58237 9.70908 9.56261 9.82983 9.99594 10.3849Z" fill="white"/>
<path d="M1.86814 2.25254L4.27802 14.7677L10.0076 16.927L12.4006 19.9925L14.461 18.384L16.5215 16.7756L14.1284 13.7101L13.4242 7.62778L1.86814 2.25254L8.02729 10.1424C8.58237 9.70908 9.56261 9.82983 9.99594 10.3849C10.4293 10.94 10.3085 11.9202 9.75342 12.3536C9.19833 12.7869 8.21809 12.6661 7.78476 12.1111C7.35144 11.556 7.4722 10.5757 8.02729 10.1424L1.86814 2.25254Z" fill="white"/>
<path fill-rule="evenodd" clip-rule="evenodd" d="M4.27802 14.7677L10.0076 16.927L12.4006 19.9925L16.5215 16.7756L14.1284 13.7101L13.4242 7.62778L1.86814 2.25254L4.27802 14.7677ZM3.85661 5.83583L5.3952 13.8261L10.7923 15.8601L12.6211 18.2028L14.7318 16.5551L12.903 14.2125L12.2397 8.48304L4.86169 5.05122L8.20999 9.34039C8.51533 9.24396 8.83768 9.22361 9.13522 9.26026C9.63089 9.32132 10.155 9.55258 10.4985 9.99262C10.842 10.4327 10.9391 10.9972 10.8781 11.4929C10.817 11.9885 10.5858 12.5126 10.1457 12.8561C9.70568 13.1996 9.14114 13.2968 8.64548 13.2357C8.14981 13.1747 7.62574 12.9434 7.28223 12.5034C6.93871 12.0633 6.84156 11.4988 6.90262 11.0031C6.93928 10.7056 7.03726 10.3978 7.20491 10.125L3.85661 5.83583ZM9.61258 11.337C9.64234 11.0954 9.58321 10.8923 9.4934 10.7772C9.40359 10.6622 9.22088 10.5555 8.97932 10.5258C8.73777 10.496 8.53464 10.5551 8.41959 10.6449C8.30454 10.7348 8.19788 10.9175 8.16812 11.159C8.13836 11.4006 8.19749 11.6037 8.2873 11.7188C8.37711 11.8338 8.55982 11.9405 8.80138 11.9702C9.04293 12 9.24606 11.9408 9.36111 11.851C9.47616 11.7612 9.58282 11.5785 9.61258 11.337Z" fill="black"/>
</g>
<defs>
<filter id="filter0_d_785_20054" x="-0.681985" y="0.46746" width="19.2435" height="22.3302" filterUnits="userSpaceOnUse" color-interpolation-filters="sRGB">
<feFlood flood-opacity="0" result="BackgroundImageFix"/>
<feColorMatrix in="SourceAlpha" type="matrix" values="0 0 0 0 0 0 0 0 0 0 0 0 0 0 0 0 0 0 127 0" result="hardAlpha"/>
<feOffset dx="-0.255013" dy="0.510025"/>
<feGaussianBlur stdDeviation="1.14756"/>
<feComposite in2="hardAlpha" operator="out"/>
<feColorMatrix type="matrix" values="0 0 0 0 0 0 0 0 0 0 0 0 0 0 0 0 0 0 0.56 0"/>
<feBlend mode="normal" in2="BackgroundImageFix" result="effect1_dropShadow_785_20054"/>
<feBlend mode="normal" in="SourceGraphic" in2="effect1_dropShadow_785_20054" result="shape"/>
</filter>
<filter id="filter1_d_785_20054" x="-1.54382" y="-0.636544" width="21.0002" height="24.329" filterUnits="userSpaceOnUse" color-interpolation-filters="sRGB">
<feFlood flood-opacity="0" result="BackgroundImageFix"/>
<feColorMatrix in="SourceAlpha" type="matrix" values="0 0 0 0 0 0 0 0 0 0 0 0 0 0 0 0 0 0 127 0" result="hardAlpha"/>
<feOffset dx="-0.255013" dy="0.510025"/>
<feGaussianBlur stdDeviation="1.14756"/>
<feComposite in2="hardAlpha" operator="out"/>
<feColorMatrix type="matrix" values="0 0 0 0 0 0 0 0 0 0 0 0 0 0 0 0 0 0 0.56 0"/>
<feBlend mode="normal" in2="BackgroundImageFix" result="effect1_dropShadow_785_20054"/>
<feBlend mode="normal" in="SourceGraphic" in2="effect1_dropShadow_785_20054" result="shape"/>
</filter>
</defs>
</svg>
