<svg width="295" height="295" viewBox="0 0 295 295" fill="none" xmlns="http://www.w3.org/2000/svg">
<rect width="295" height="295" fill="white"/>
<mask id="mask0_922_20106" style="mask-type:alpha" maskUnits="userSpaceOnUse" x="0" y="0" width="295" height="295">
<rect width="295" height="295" fill="#C4C4C4"/>
</mask>
<g mask="url(#mask0_922_20106)">
<g style="mix-blend-mode:multiply" opacity="0.55">
<path d="M52.969 31.756L97.904 44.9266L98.2179 43.8557C98.5543 42.7079 98.6861 41.5023 98.3892 40.3438C97.4024 36.4966 93.6498 27.4146 79.8267 23.363C75.7283 22.1617 70.8529 18.8317 66.9101 15.7121C63.4429 12.9677 58.0496 14.4223 56.8055 18.6668L52.969 31.756ZM56.9015 128.545L80.0335 132.16L56.9015 128.545ZM68.3997 261.542L21.6003 259.982L21.5631 261.097C21.5233 262.293 21.696 263.493 22.2721 264.541C24.1864 268.021 30.0833 275.882 44.48 276.362C48.7485 276.504 54.2998 278.514 58.8955 280.553C62.9371 282.347 67.7979 279.595 67.9453 275.174L68.3997 261.542ZM52.969 31.756C43.8512 62.8637 38.5173 94.5443 33.7694 124.931L80.0335 132.16C84.7703 101.844 89.725 72.8316 97.904 44.9266L52.969 31.756ZM33.7694 124.931C26.7985 169.545 23.0904 215.279 21.6003 259.982L68.3997 261.542C69.8409 218.305 73.4158 174.513 80.0335 132.16L33.7694 124.931Z" fill="url(#paint0_linear_922_20106)"/>
</g>
<g style="mix-blend-mode:multiply" opacity="0.55">
<path d="M91.8834 28.7931L136.435 43.2069L136.779 42.1451C137.147 41.0072 137.312 39.8056 137.048 38.6394C136.168 34.7662 132.669 25.5835 118.964 21.1494C114.9 19.8348 110.119 16.3706 106.265 13.1427C102.875 10.303 97.4435 11.6073 96.082 15.8155L91.8834 28.7931ZM107.786 78.6631L84.3882 77.8232L107.786 78.6631ZM107.396 164.51L130.806 164.176L130.806 164.176L107.396 164.51ZM109.021 219.855L85.7847 222.72L85.7847 222.72L109.021 219.855ZM125.481 238.697L86.5195 212.723L85.9004 213.652C85.237 214.647 84.7516 215.759 84.6894 216.953C84.4837 220.919 85.3566 230.707 97.342 238.697C100.896 241.067 104.556 245.699 107.389 249.853C109.879 253.506 115.461 253.727 117.915 250.047L125.481 238.697ZM91.8834 28.7931C86.3192 45.9914 84.9465 62.2702 84.3882 77.8232L131.183 79.5031C131.689 65.4289 132.863 54.2471 136.435 43.2069L91.8834 28.7931ZM84.3882 77.8232C83.3394 107.04 83.5776 136.204 83.9853 164.843L130.806 164.176C130.399 135.621 130.18 107.461 131.183 79.5031L84.3882 77.8232ZM83.9853 164.843C84.2168 181.104 83.3421 202.907 85.7847 222.72L132.258 216.99C130.229 200.531 131.093 184.341 130.806 164.176L83.9853 164.843ZM85.7847 222.72C85.5805 221.063 85.5507 218.469 86.4646 215.426C87.407 212.289 88.9739 209.934 90.3059 208.384C91.2877 207.242 92.4147 206.31 91.4995 207.115C91.2515 207.333 90.5228 207.972 89.7146 208.797C88.8723 209.656 87.6895 210.968 86.5195 212.723L125.481 238.697C123.822 241.185 121.965 242.679 122.42 242.279C122.439 242.262 122.46 242.244 122.516 242.195C122.562 242.155 122.637 242.089 122.718 242.018C122.881 241.874 123.133 241.65 123.424 241.381C124.002 240.846 124.872 240.005 125.817 238.906C127.838 236.554 130.002 233.254 131.311 228.897C132.591 224.634 132.697 220.546 132.258 216.99L85.7847 222.72Z" fill="url(#paint1_linear_922_20106)"/>
<path d="M91.8834 28.7931L136.435 43.2069L136.779 42.1451C137.147 41.0072 137.312 39.8056 137.048 38.6394C136.168 34.7662 132.669 25.5835 118.964 21.1494C114.9 19.8348 110.119 16.3706 106.265 13.1427C102.875 10.303 97.4435 11.6073 96.082 15.8155L91.8834 28.7931ZM107.786 78.6631L84.3882 77.8232L107.786 78.6631ZM107.396 164.51L130.806 164.176L130.806 164.176L107.396 164.51ZM109.021 219.855L85.7847 222.72L85.7847 222.72L109.021 219.855ZM125.481 238.697L86.5195 212.723L85.9004 213.652C85.237 214.647 84.7516 215.759 84.6894 216.953C84.4837 220.919 85.3566 230.707 97.342 238.697C100.896 241.067 104.556 245.699 107.389 249.853C109.879 253.506 115.461 253.727 117.915 250.047L125.481 238.697ZM91.8834 28.7931C86.3192 45.9914 84.9465 62.2702 84.3882 77.8232L131.183 79.5031C131.689 65.4289 132.863 54.2471 136.435 43.2069L91.8834 28.7931ZM84.3882 77.8232C83.3394 107.04 83.5776 136.204 83.9853 164.843L130.806 164.176C130.399 135.621 130.18 107.461 131.183 79.5031L84.3882 77.8232ZM83.9853 164.843C84.2168 181.104 83.3421 202.907 85.7847 222.72L132.258 216.99C130.229 200.531 131.093 184.341 130.806 164.176L83.9853 164.843ZM85.7847 222.72C85.5805 221.063 85.5507 218.469 86.4646 215.426C87.407 212.289 88.9739 209.934 90.3059 208.384C91.2877 207.242 92.4147 206.31 91.4995 207.115C91.2515 207.333 90.5228 207.972 89.7146 208.797C88.8723 209.656 87.6895 210.968 86.5195 212.723L125.481 238.697C123.822 241.185 121.965 242.679 122.42 242.279C122.439 242.262 122.46 242.244 122.516 242.195C122.562 242.155 122.637 242.089 122.718 242.018C122.881 241.874 123.133 241.65 123.424 241.381C124.002 240.846 124.872 240.005 125.817 238.906C127.838 236.554 130.002 233.254 131.311 228.897C132.591 224.634 132.697 220.546 132.258 216.99L85.7847 222.72Z" fill="url(#paint2_linear_922_20106)"/>
</g>
<g style="mix-blend-mode:multiply" opacity="0.55">
<path d="M143.973 66.1239L190.705 69.091L190.775 67.9772C190.851 66.7836 190.714 65.5785 190.17 64.5136C188.361 60.9776 182.704 52.9431 168.328 52.0303C164.066 51.7597 158.577 49.5833 154.045 47.407C150.059 45.4922 145.118 48.0973 144.838 52.5115L143.973 66.1239ZM150.56 203.791L173.472 208.605L150.56 203.791ZM148.153 213.807L125.661 207.309L125.661 207.309L148.153 213.807ZM131.832 177.496L177.092 189.504L177.378 188.425C177.685 187.269 177.785 186.061 177.459 184.91C176.373 181.09 172.387 172.108 158.464 168.414C154.336 167.319 149.377 164.115 145.355 161.098C141.818 158.444 136.464 160.038 135.33 164.313L131.832 177.496ZM143.973 66.1239C141.094 111.466 136.768 155.564 127.647 198.978L173.472 208.605C183.267 161.984 187.769 115.325 190.705 69.091L143.973 66.1239ZM127.647 198.978C126.925 202.416 126.394 204.769 125.661 207.309L170.646 220.305C171.883 216.025 172.701 212.275 173.472 208.605L127.647 198.978ZM125.661 207.309C125.089 209.286 124.805 211.26 124.796 211.316C124.671 212.092 124.741 211.573 124.895 210.935C124.988 210.549 125.221 209.636 125.677 208.469C126.08 207.439 127.058 205.155 129.059 202.687C131.162 200.094 135.203 196.354 141.571 194.856C148.087 193.323 153.6 194.939 156.998 196.638L136.057 238.52C139.762 240.372 145.543 242.026 152.296 240.437C158.901 238.883 163.148 234.994 165.43 232.179C169.207 227.522 170.264 222.543 170.419 221.896C170.779 220.403 171.002 218.909 171.026 218.759C171.167 217.888 171.028 218.985 170.646 220.305L125.661 207.309ZM156.998 196.638C165.504 200.891 168.019 208.396 168.633 210.551C169.4 213.241 169.401 215.294 169.401 215.758C169.401 216.889 169.265 217.191 169.474 216.039C169.832 214.065 170.619 210.901 171.722 207.011C172.78 203.281 173.959 199.47 174.928 196.408C175.411 194.881 175.83 193.58 176.161 192.548C176.336 192.003 176.834 190.474 177.092 189.504L131.832 177.496C131.904 177.224 131.582 178.181 130.286 182.277C129.256 185.531 127.917 189.851 126.673 194.237C125.474 198.464 124.176 203.402 123.399 207.688C123.041 209.666 122.576 212.639 122.575 215.751C122.575 217.205 122.658 220.076 123.601 223.385C124.391 226.157 127.176 234.079 136.057 238.52L156.998 196.638Z" fill="url(#paint3_linear_922_20106)"/>
</g>
<g style="mix-blend-mode:multiply" opacity="0.55">
<path d="M186.782 84.1235L231.37 69.8218L231.029 68.7591C230.664 67.6202 230.097 66.5482 229.201 65.7557C226.226 63.1242 218.025 57.7105 204.309 62.11C200.242 63.4145 194.338 63.3924 189.324 63.0214C184.914 62.6942 181.265 66.9238 182.616 71.1355L186.782 84.1235ZM212.588 100.645L189.198 101.683L212.588 100.645ZM210.767 172.965L234.144 174.249L210.767 172.965ZM206.344 229.806L229.658 231.958L206.344 229.806ZM229.77 240.185L183.7 248.562L183.899 249.66C184.113 250.836 184.536 251.973 185.321 252.875C187.928 255.872 195.354 262.307 209.527 259.73C213.729 258.966 219.58 259.756 224.503 260.777C228.832 261.675 233.001 257.957 232.21 253.605L229.77 240.185ZM186.782 84.1235C188.256 88.7188 188.858 94.0238 189.198 101.683L235.978 99.6075C235.601 91.1229 234.837 80.632 231.37 69.8218L186.782 84.1235ZM189.198 101.683C190.204 124.355 188.735 147.189 187.389 171.681L234.144 174.249C235.441 150.634 237.11 125.131 235.978 99.6075L189.198 101.683ZM187.389 171.681C186.37 190.243 184.775 208.762 183.031 227.654L229.658 231.958C231.413 212.945 233.075 193.716 234.144 174.249L187.389 171.681ZM183.031 227.654C182.417 234.301 182.273 240.716 183.7 248.562L229.77 240.185C229.358 237.918 229.279 236.068 229.658 231.958L183.031 227.654Z" fill="url(#paint4_linear_922_20106)"/>
</g>
<g style="mix-blend-mode:multiply" opacity="0.55">
<path d="M247.364 84.8589L270.655 82.4788L247.364 84.8589ZM273.118 230.538H226.292V231.654C226.292 232.85 226.505 234.044 227.116 235.072C229.145 238.487 235.3 246.146 249.705 246.146C253.976 246.146 259.591 247.971 264.252 249.855C268.351 251.514 273.118 248.601 273.118 244.178V230.538ZM268.223 65.803C266.58 52.9773 254.851 43.9119 242.025 45.5549C229.199 47.1979 220.134 58.927 221.777 71.7527L268.223 65.803ZM224.072 87.2391C228.831 133.808 226.292 180.54 226.292 230.538H273.118C273.118 183.875 275.737 132.212 270.655 82.4788L224.072 87.2391ZM221.777 71.7527C222.044 73.8333 222.643 77.7153 223.12 80.8303C223.375 82.4991 223.613 84.0568 223.8 85.3236C224.017 86.7963 224.08 87.3138 224.072 87.2391L270.655 82.4788C270.536 81.317 270.303 79.709 270.125 78.4978C269.916 77.0808 269.659 75.3962 269.406 73.7447C268.866 70.2189 268.395 67.1474 268.223 65.803L221.777 71.7527Z" fill="url(#paint5_linear_922_20106)"/>
</g>
</g>
<defs>
<linearGradient id="paint0_linear_922_20106" x1="60" y1="7.5" x2="60.2183" y2="260.762" gradientUnits="userSpaceOnUse">
<stop stop-color="#FEB36D"/>
<stop offset="1" stop-color="#FF4539"/>
</linearGradient>
<linearGradient id="paint1_linear_922_20106" x1="110.08" y1="36" x2="110.08" y2="225.71" gradientUnits="userSpaceOnUse">
<stop stop-color="#05B3D9"/>
<stop offset="1" stop-color="#41D1FF"/>
</linearGradient>
<linearGradient id="paint2_linear_922_20106" x1="110.08" y1="36" x2="110.08" y2="225.71" gradientUnits="userSpaceOnUse">
<stop stop-color="#68F227"/>
<stop offset="1" stop-color="#1BB102"/>
</linearGradient>
<linearGradient id="paint3_linear_922_20106" x1="156.663" y1="67.6074" x2="156.663" y2="217.659" gradientUnits="userSpaceOnUse">
<stop stop-color="#05D9A6"/>
<stop offset="1" stop-color="#12ACDC"/>
</linearGradient>
<linearGradient id="paint4_linear_922_20106" x1="209.471" y1="76.9727" x2="209.471" y2="244.373" gradientUnits="userSpaceOnUse">
<stop stop-color="#C64DFF"/>
<stop offset="1" stop-color="#9E1DDB"/>
</linearGradient>
<linearGradient id="paint5_linear_922_20106" x1="247.69" y1="68.7778" x2="247.69" y2="230.538" gradientUnits="userSpaceOnUse">
<stop stop-color="#FFA800"/>
<stop offset="1" stop-color="#FF5C00"/>
</linearGradient>
</defs>
</svg>
