<svg fill="currentColor" viewBox="0 0 1024 1024" version="1.1" xmlns="http://www.w3.org/2000/svg" width="200" height="200">
  <path fill="currentColor" d="M901.358 547c-29.17-29.154-72.108-31.78-101.278-2.624l-83.374 83.328c-21.704 21.672-47.86 21.718-63.128 3.704-10.114-11.936-6.122-48.748-3.288-72.098l41.814-343.698c3.734-30.706-18.14-60.37-48.86-64.102-30.716-3.734-58.644 19.878-62.382 50.578L534.74 472.042c-2.41 6.716-7.58 7.876-8.162-1.164L510.88 120c0-30.93-25.084-56-56.028-56-30.946 0-56.03 25.07-56.03 56l-1.104 353.504c0.292 4.08-3.208 5.248-3.84 0.588L344.032 198.154c-5.5-30.438-34.646-52.406-65.096-46.906-30.454 5.496-50.678 36.374-45.182 66.806l44.386 322.91c0.046 5.744-1.882 9.026-4.616 1.662l-66.218-177.034c-10.36-29.144-42.392-46.13-71.552-35.778-29.158 10.354-44.402 44.122-34.046 73.262l116.084 379.25c0.606 2.092 1.248 4.17 1.906 6.236l0.242 0.78c0.022 0.062 0.05 0.116 0.07 0.176C252.158 888.466 345.14 960 454.854 960c70.232 0 143.182-24.756 198.714-67.344 0.002 0 0.006-0.004 0.006-0.004 59.98-36.102 252.142-242.694 252.142-242.694C934.89 620.804 930.532 576.16 901.358 547z"></path>
</svg>
