<svg width="200" height="200" viewBox="0 0 200 200" fill="currentColor" xmlns="http://www.w3.org/2000/svg">
<path fill="currentColor" d="M137.548 186.992L186.992 137.548C188.607 135.933 188.242 133.809 186.184 132.819L172.373 126.187L126.187 172.373L132.819 186.184C133.804 188.242 135.933 188.607 137.548 186.992V186.992ZM164.601 117.37L160.807 71.8431C160.431 68.8176 159.789 66.3009 155.834 65.4325L155.823 65.427C96.5233 53.0813 38.656 11 38.656 11L28.7385 20.9174L75.7537 67.9326C79.2859 66.2454 83.3008 65.8613 87.0888 66.8481C90.8768 67.8348 94.194 70.129 96.4541 73.3251C98.7142 76.5211 99.7716 80.4133 99.4395 84.3136C99.1074 88.2139 97.4071 91.8713 94.6392 94.6392C91.8713 97.4071 88.2139 99.1074 84.3136 99.4395C80.4133 99.7716 76.5211 98.7142 73.3251 96.4541C70.129 94.194 67.8348 90.8768 66.8481 87.0888C65.8613 83.3008 66.2454 79.2859 67.9326 75.7537L20.9174 28.7385L11 38.656C11 38.656 53.0813 96.5233 65.427 155.823L65.4325 155.834C66.3009 159.784 68.8176 160.431 71.8431 160.801L117.37 164.596L164.601 117.37V117.37Z"/>
</svg>
