<svg width="300" height="300" viewBox="0 0 300 300" fill="none" xmlns="http://www.w3.org/2000/svg">
<path fill-rule="evenodd" clip-rule="evenodd" d="M135.33 42.24L134.98 43.32C131.35 54.55 130.15 65.92 129.64 80.24C128.62 108.67 128.84 137.30 129.26 166.34C129.34 172.15 129.33 177.64 129.32 182.90C129.78 181.45 130.05 180.61 130.19 180.19C136.71 143.00 140.19 105.26 142.65 66.63L143.53 52.79C143.81 48.30 148.84 45.65 152.89 47.60C157.50 49.81 163.08 52.02 167.41 52.30C180.23 53.11 186.23 59.49 188.76 63.47L188.77 63.47C193.86 63.85 199.87 63.87 204.00 62.55C212.07 59.96 218.25 60.71 222.63 62.32C225.29 53.67 232.80 46.94 242.36 45.71C255.40 44.04 267.33 53.26 269.00 66.30C269.17 67.63 269.63 70.61 270.16 74.06L270.21 74.38C270.46 76.06 270.72 77.77 270.94 79.21C271.12 80.44 271.35 82.08 271.48 83.26C275.35 121.22 274.82 160.28 274.31 197.47L274.31 197.48C274.15 209.84 273.98 221.99 273.98 233.83V247.70C273.98 252.20 269.13 255.16 264.96 253.48C260.22 251.56 254.51 249.70 250.17 249.70C239.21 249.70 232.95 245.34 229.62 241.69C229.68 242.35 229.78 242.98 229.90 243.64L232.38 257.29C233.18 261.71 228.94 265.5 224.54 264.58C219.53 263.54 213.58 262.74 209.31 263.52C194.90 266.14 187.35 259.59 184.69 256.55C183.90 255.63 183.47 254.47 183.25 253.28L183.05 252.16C181.6 244.18 181.74 237.66 182.37 230.90C184.14 211.68 185.76 192.85 186.80 173.98C186.91 172.01 187.01 170.06 187.12 168.11L187.13 167.97C188.39 145.32 189.58 123.99 188.64 102.79C188.54 100.55 188.42 98.51 188.26 96.63C185.81 127.55 182.37 158.62 176.86 189.70C176.82 190.07 176.76 190.44 176.67 190.81C175.43 197.72 174.1 204.62 172.65 211.53C171.93 214.94 171.17 218.43 170.08 222.33C169.98 222.93 169.79 223.99 169.54 225.04C169.53 225.07 169.53 225.10 169.52 225.14L169.52 225.14C169.3 226.09 168.16 230.95 164.47 235.50C162.15 238.36 157.83 242.32 151.11 243.90C144.24 245.51 138.36 243.83 134.60 241.95C131.78 240.54 129.56 238.79 127.83 236.95C126.71 239.11 125.42 240.90 124.18 242.34C123.57 243.05 122.99 243.66 122.50 244.14L116.15 253.67C113.65 257.41 107.97 257.19 105.44 253.47C102.56 249.25 98.84 244.54 95.22 242.13C83.04 234.00 82.15 224.05 82.36 220.02C82.39 219.45 82.51 218.90 82.70 218.38C81.62 205.46 81.65 192.12 81.68 180.25C81.69 175.57 81.70 171.12 81.64 167.02C81.38 148.44 81.18 129.63 81.35 110.74C80.06 118.34 78.84 126.02 77.62 133.78C70.89 176.86 67.26 221.39 65.79 265.36L65.33 279.22C65.18 283.72 60.24 286.52 56.13 284.69C51.45 282.62 45.81 280.58 41.47 280.43C26.83 279.94 20.83 271.95 18.88 268.41C18.30 267.34 18.12 266.12 18.16 264.91L18.20 263.77C19.71 218.31 23.49 171.80 30.57 126.43C35.40 95.53 40.83 63.31 50.10 31.68L54.00 18.37C55.27 14.05 60.75 12.57 64.28 15.36C68.29 18.54 73.24 21.92 77.41 23.14C82.76 24.71 86.62 27.01 89.41 29.49C89.50 29.21 89.58 28.94 89.67 28.67L93.94 15.47C95.33 11.19 100.85 9.86 104.30 12.75C108.22 16.03 113.08 19.56 117.21 20.89C131.15 25.40 134.71 34.74 135.60 38.68C135.87 39.87 135.70 41.09 135.33 42.24ZM89.63 209.70C89.63 209.70 89.59 209.73 89.51 209.81C89.58 209.74 89.62 209.71 89.63 209.70ZM120.73 245.77L120.91 245.61C120.67 245.84 120.58 245.90 120.73 245.77ZM170.21 221.54C170.21 221.54 170.20 221.61 170.18 221.72C170.20 221.59 170.21 221.53 170.21 221.54Z" fill="white"/>
<path d="M134.98 43.32L144.49 46.40L144.49 46.40L134.98 43.32ZM135.33 42.24L144.84 45.32L144.84 45.32L135.33 42.24ZM129.64 80.24L119.65 79.88L119.65 79.88L129.64 80.24ZM129.26 166.34L119.26 166.49L119.26 166.49L129.26 166.34ZM129.32 182.90L119.32 182.87L138.84 185.93L129.32 182.90ZM130.19 180.19L139.68 183.35L139.91 182.65L140.04 181.92L130.19 180.19ZM142.65 66.63L132.67 66.00L132.67 66.00L142.65 66.63ZM143.53 52.79L153.51 53.42L153.51 53.42L143.53 52.79ZM152.89 47.60L148.56 56.61L148.56 56.61L152.89 47.60ZM167.41 52.30L168.05 42.32L168.05 42.32L167.41 52.30ZM188.76 63.47L180.31 68.83L183.01 73.08L188.03 73.45L188.76 63.47ZM188.77 63.47L189.50 53.50L189.5 53.50L188.77 63.47ZM204.00 62.55L200.95 53.03L200.95 53.03L204.00 62.55ZM222.63 62.32L219.17 71.70L229.07 75.34L232.18 65.27L222.63 62.32ZM242.36 45.71L243.63 55.63L243.63 55.63L242.36 45.71ZM269.00 66.30L278.92 65.03L278.92 65.03L269.00 66.30ZM270.16 74.06L260.27 75.58L260.27 75.58L270.16 74.06ZM270.21 74.38L280.09 72.87L280.09 72.87L270.21 74.38ZM270.94 79.21L280.83 77.76L280.83 77.76L270.94 79.21ZM271.48 83.26L281.42 82.24L281.42 82.24L271.48 83.26ZM274.31 197.47L284.31 197.7L284.31 197.65L284.31 197.61L274.31 197.47ZM274.31 197.48L264.32 197.26L264.32 197.30L264.31 197.34L274.31 197.48ZM264.96 253.48L268.71 244.21L268.71 244.20L264.96 253.48ZM229.62 241.69L237.02 234.96L216.88 212.85L219.67 242.62L229.62 241.69ZM229.90 243.64L220.06 245.43L220.06 245.43L229.90 243.64ZM232.38 257.29L242.22 255.50L242.22 255.50L232.38 257.29ZM224.54 264.58L226.57 254.79L226.57 254.79L224.54 264.58ZM209.31 263.52L211.10 273.36L211.10 273.36L209.31 263.52ZM184.69 256.55L177.15 263.11L177.15 263.11L184.69 256.55ZM183.25 253.28L193.09 251.49L193.09 251.49L183.25 253.28ZM183.05 252.16L173.21 253.95L173.21 253.95L183.05 252.16ZM182.37 230.90L172.41 229.98L172.41 229.98L182.37 230.90ZM186.80 173.98L196.78 174.52L196.78 174.52L186.80 173.98ZM187.12 168.11L177.14 167.55L177.14 167.56L187.12 168.11ZM187.13 167.97L197.12 168.53L197.12 168.53L187.13 167.97ZM188.64 102.79L198.63 102.35L198.63 102.35L188.64 102.79ZM188.26 96.63L198.22 95.79L178.29 95.84L188.26 96.63ZM176.86 189.70L167.02 187.95L166.96 188.29L166.92 188.63L176.86 189.70ZM176.67 190.81L166.95 188.44L166.88 188.74L166.82 189.05L176.67 190.81ZM172.65 211.53L182.43 213.58L182.43 213.58L172.65 211.53ZM170.08 222.33L160.45 219.65L160.30 220.17L160.21 220.70L170.08 222.33ZM169.54 225.04L179.26 227.39L179.26 227.38L169.54 225.04ZM169.52 225.14L159.78 222.86L159.77 222.92L159.75 222.99L169.52 225.14ZM169.52 225.14L179.26 227.42L179.27 227.35L179.29 227.28L169.52 225.14ZM164.47 235.50L156.70 229.20L156.70 229.20L164.47 235.50ZM151.11 243.90L148.82 234.16L148.82 234.16L151.11 243.90ZM134.60 241.95L139.07 233.00L139.07 233.00L134.60 241.95ZM127.83 236.95L135.08 230.07L125.42 219.88L118.95 232.35L127.83 236.95ZM124.18 242.34L116.60 235.82L116.60 235.82L124.18 242.34ZM122.50 244.14L115.47 237.02L114.75 237.74L114.18 238.6L122.50 244.14ZM116.15 253.67L107.83 248.12L107.83 248.12L116.15 253.67ZM105.44 253.47L113.70 247.84L113.70 247.84L105.44 253.47ZM95.22 242.13L100.77 233.81L100.77 233.81L95.22 242.13ZM82.36 220.02L72.37 219.49L72.37 219.50L82.36 220.02ZM82.70 218.38L92.10 221.79L92.85 219.73L92.67 217.54L82.70 218.38ZM81.68 180.25L71.68 180.23L71.68 180.23L81.68 180.25ZM81.64 167.02L71.64 167.16L71.64 167.16L81.64 167.02ZM81.35 110.74L91.35 110.83L71.49 109.06L81.35 110.74ZM77.62 133.78L67.74 132.24L67.74 132.24L77.62 133.78ZM65.79 265.36L75.79 265.69L75.79 265.69L65.79 265.36ZM65.33 279.22L55.33 278.89L55.33 278.89L65.33 279.22ZM56.13 284.69L60.18 275.55L60.18 275.55L56.13 284.69ZM41.47 280.43L41.13 290.43L41.13 290.43L41.47 280.43ZM18.88 268.41L10.12 273.23L10.12 273.23L18.88 268.41ZM18.16 264.91L28.16 265.24L28.16 265.24L18.16 264.91ZM18.20 263.77L8.20 263.44L8.20 263.44L18.20 263.77ZM30.57 126.43L20.69 124.89L20.69 124.89L30.57 126.43ZM50.10 31.68L59.70 34.49L59.70 34.49L50.10 31.68ZM54.00 18.37L44.40 15.56L44.40 15.56L54.00 18.37ZM64.28 15.36L58.07 23.20L58.07 23.21L64.28 15.36ZM77.41 23.14L74.60 32.74L74.60 32.74L77.41 23.14ZM89.41 29.49L82.78 36.97L94.30 47.17L98.94 32.50L89.41 29.49ZM89.67 28.67L80.16 25.59L80.16 25.59L89.67 28.67ZM93.94 15.47L84.43 12.39L84.43 12.39L93.94 15.47ZM104.30 12.75L97.88 20.42L97.88 20.42L104.30 12.75ZM117.21 20.89L114.13 30.41L114.13 30.41L117.21 20.89ZM135.60 38.68L145.36 36.47L145.35 36.46L135.60 38.68ZM89.63 209.70L95.36 217.90L95.37 217.89L95.38 217.88L89.63 209.70ZM89.51 209.81L82.70 202.48L96.18 217.26L89.51 209.81ZM120.91 245.61L127.74 252.92L114.32 238.09L120.91 245.61ZM120.73 245.77L114.14 238.25L114.13 238.25L114.12 238.26L120.73 245.77ZM170.21 221.54L160.21 221.40L160.21 221.40L170.21 221.54ZM170.18 221.72L160.31 220.08L180.00 223.59L170.18 221.72ZM144.49 46.40L144.84 45.32L125.82 39.17L125.47 40.25L144.49 46.40ZM139.63 80.59C140.14 66.59 141.29 56.31 144.49 46.40L125.47 40.25C121.41 52.79 120.17 65.25 119.65 79.88L139.63 80.59ZM139.25 166.20C138.84 137.18 138.62 108.76 139.63 80.59L119.65 79.88C118.62 108.58 118.84 137.43 119.26 166.49L139.25 166.20ZM139.32 182.92C139.33 177.67 139.34 172.10 139.25 166.20L119.26 166.49C119.34 172.20 119.33 177.61 119.32 182.87L139.32 182.92ZM120.70 177.03C120.54 177.52 120.25 178.42 119.79 179.86L138.84 185.93C139.30 184.48 139.56 183.70 139.68 183.35L120.70 177.03ZM132.67 66.00C130.22 104.46 126.77 141.79 120.34 178.47L140.04 181.92C146.65 144.21 150.16 106.06 152.63 67.26L132.67 66.00ZM133.55 52.15L132.67 66.00L152.63 67.26L153.51 53.42L133.55 52.15ZM157.22 38.58C147.44 33.89 134.33 39.86 133.55 52.15L153.51 53.42C153.40 55.01 152.42 56.10 151.58 56.56C150.78 56.99 149.66 57.14 148.56 56.61L157.22 38.58ZM168.05 42.32C165.82 42.18 161.77 40.77 157.22 38.58L148.56 56.61C153.22 58.85 160.34 61.87 166.78 62.28L168.05 42.32ZM197.20 58.12C193.26 51.90 184.58 43.37 168.05 42.32L166.78 62.28C175.88 62.85 179.20 67.07 180.31 68.83L197.20 58.12ZM189.5 53.50L189.49 53.50L188.03 73.45L188.04 73.45L189.5 53.50ZM200.95 53.03C198.83 53.71 194.55 53.87 189.50 53.50L188.03 73.45C193.18 73.83 200.91 74.04 207.06 72.07L200.95 53.03ZM226.08 52.93C219.61 50.55 211.13 49.76 200.95 53.03L207.06 72.07C213.00 70.16 216.90 70.87 219.17 71.70L226.08 52.93ZM232.18 65.27C233.74 60.23 238.10 56.34 243.63 55.63L241.09 35.79C227.50 37.53 216.85 47.11 213.07 59.37L232.18 65.27ZM243.63 55.63C251.2 54.66 258.11 60.01 259.08 67.57L278.92 65.03C276.55 46.51 259.61 33.42 241.09 35.79L243.63 55.63ZM259.08 67.57C259.27 69.06 259.76 72.21 260.27 75.58L280.04 72.55C279.50 69.01 279.07 66.20 278.92 65.03L259.08 67.57ZM260.27 75.58L260.32 75.89L280.09 72.87L280.04 72.55L260.27 75.58ZM260.32 75.89C260.58 77.58 260.84 79.26 261.04 80.67L280.83 77.76C280.61 76.28 280.35 74.54 280.09 72.87L260.32 75.89ZM261.04 80.67C261.23 81.95 261.43 83.36 261.53 84.28L281.42 82.24C281.28 80.80 281.00 78.94 280.83 77.76L261.04 80.67ZM261.53 84.28C265.34 121.56 264.82 160.05 264.32 197.34L284.31 197.61C284.82 160.52 285.37 120.88 281.42 82.24L261.53 84.28ZM264.32 197.25L264.32 197.26L284.31 197.70L284.31 197.7L264.32 197.25ZM264.31 197.34C264.15 209.69 263.98 221.91 263.98 233.83H283.98C283.98 222.07 284.14 209.99 284.31 197.61L264.31 197.34ZM263.98 233.83V247.70H283.98V233.83H263.98ZM263.98 247.70C263.98 246.11 264.89 244.96 265.70 244.45C266.47 243.96 267.58 243.75 268.71 244.21L261.21 262.75C271.27 266.81 283.98 260.02 283.98 247.70H263.98ZM268.71 244.20C263.92 242.27 256.63 239.70 250.17 239.70V259.70C252.40 259.70 256.53 260.85 261.22 262.75L268.71 244.20ZM250.17 239.70C242.26 239.70 238.61 236.71 237.02 234.96L222.23 248.43C227.29 253.98 236.16 259.70 250.17 259.70V239.70ZM239.74 241.85C239.65 241.40 239.61 241.07 239.58 240.76L219.67 242.62C219.76 243.63 219.90 244.55 220.06 245.43L239.74 241.85ZM242.22 255.50L239.74 241.85L220.06 245.43L222.54 259.08L242.22 255.50ZM222.51 274.37C233.13 276.58 244.42 267.62 242.22 255.50L222.54 259.08C222.26 257.51 222.94 256.22 223.65 255.57C224.32 254.95 225.38 254.54 226.57 254.79L222.51 274.37ZM211.10 273.36C213.29 272.96 217.56 273.35 222.51 274.37L226.57 254.79C221.51 253.74 213.87 252.52 207.52 253.68L211.10 273.36ZM177.15 263.11C181.48 268.08 192.36 276.76 211.10 273.36L207.52 253.68C197.44 255.51 193.21 251.10 192.24 249.98L177.15 263.11ZM173.41 255.06C173.82 257.34 174.78 260.39 177.15 263.11L192.24 249.98C193.01 250.87 193.11 251.61 193.09 251.49L173.41 255.06ZM173.21 253.95L173.41 255.07L193.09 251.49L192.88 250.37L173.21 253.95ZM172.41 229.98C171.73 237.28 171.54 244.78 173.21 253.95L192.88 250.37C191.65 243.58 191.75 238.03 192.32 231.82L172.41 229.98ZM176.81 173.43C175.79 192.11 174.18 210.79 172.41 229.98L192.32 231.82C194.10 212.58 195.74 193.59 196.78 174.52L176.81 173.43ZM177.14 167.56C177.03 169.50 176.92 171.46 176.81 173.43L196.78 174.52C196.89 172.56 197.00 170.61 197.11 168.67L177.14 167.56ZM178.65 103.24C179.56 123.84 178.41 144.67 177.15 167.42L197.12 168.53C198.37 145.97 199.59 124.13 198.63 102.35L178.65 103.24ZM178.29 97.46C178.44 99.18 178.55 101.08 178.65 103.24L198.63 102.35C198.52 100.02 198.40 97.84 198.22 95.79L178.29 97.46ZM186.71 191.44C192.29 159.95 195.76 128.54 198.23 97.42L178.29 95.84C175.86 126.56 172.45 157.29 167.02 187.95L186.71 191.44ZM186.38 193.19C186.56 192.44 186.71 191.63 186.81 190.76L166.92 188.63C166.93 188.51 166.95 188.44 166.95 188.44L186.38 193.19ZM182.43 213.58C183.90 206.57 185.26 199.57 186.51 192.57L166.82 189.05C165.60 195.86 164.29 202.67 162.86 209.47L182.43 213.58ZM179.71 225.02C180.89 220.79 181.70 217.04 182.43 213.58L162.86 209.47C162.15 212.84 161.45 216.07 160.45 219.65L179.71 225.02ZM179.26 227.38C179.60 225.99 179.83 224.66 179.95 223.97L160.21 220.70C160.13 221.20 159.99 221.99 159.82 222.70L179.26 227.38ZM179.26 227.42C179.26 227.41 179.26 227.40 179.26 227.39C179.26 227.39 179.26 227.38 179.26 227.38C179.27 227.37 179.27 227.37 179.26 227.37C179.26 227.38 179.26 227.38 179.26 227.39L159.82 222.70C159.80 222.76 159.79 222.83 159.78 222.86L179.26 227.42ZM179.29 227.28L179.29 227.28L159.75 222.99L159.75 222.99L179.29 227.28ZM172.23 241.80C177.39 235.45 178.94 228.78 179.26 227.42L159.78 222.86C159.65 223.40 158.93 226.45 156.70 229.20L172.23 241.80ZM153.40 253.63C162.91 251.39 168.99 245.80 172.23 241.80L156.70 229.20C155.30 230.93 152.75 233.24 148.82 234.16L153.40 253.63ZM130.12 250.89C135.39 253.52 143.68 255.92 153.40 253.63L148.82 234.16C144.81 235.11 141.34 234.14 139.07 233.00L130.12 250.89ZM120.57 243.84C123.05 246.45 126.19 248.92 130.12 250.89L139.07 233.00C137.37 232.15 136.08 231.12 135.08 230.07L120.57 243.84ZM131.77 248.86C133.43 246.92 135.18 244.50 136.70 241.56L118.95 232.35C118.24 233.73 117.41 234.88 116.60 235.82L131.77 248.86ZM129.52 251.26C130.17 250.62 130.94 249.82 131.77 248.86L116.60 235.82C116.20 236.29 115.81 236.69 115.47 237.02L129.52 251.26ZM124.47 259.22L130.82 249.69L114.18 238.6L107.83 248.12L124.47 259.22ZM97.18 259.11C103.29 268.07 117.63 269.47 124.47 259.22L107.83 248.12C108.71 246.80 110.10 246.35 111.06 246.37C111.97 246.39 113.02 246.83 113.70 247.84L97.18 259.11ZM89.68 250.45C91.53 251.69 94.33 254.93 97.18 259.11L113.70 247.84C110.79 243.57 106.14 237.39 100.77 233.81L89.68 250.45ZM72.37 219.50C72.03 226.08 73.83 239.88 89.68 250.45L100.77 233.81C92.25 228.12 92.27 222.02 92.34 220.53L72.37 219.50ZM73.30 214.96C72.82 216.29 72.46 217.81 72.37 219.49L92.34 220.54C92.32 221.09 92.20 221.51 92.10 221.79L73.30 214.96ZM71.68 180.23C71.65 192.02 71.61 205.80 72.74 219.21L92.67 217.54C91.62 205.13 91.65 192.21 91.68 180.28L71.68 180.23ZM71.64 167.16C71.70 171.17 71.69 175.53 71.68 180.23L91.68 180.28C91.69 175.62 91.70 171.08 91.64 166.88L71.64 167.16ZM71.35 110.65C71.18 129.66 71.38 148.56 71.64 167.16L91.64 166.88C91.38 148.31 91.18 129.60 91.35 110.83L71.35 110.65ZM87.50 135.33C88.71 127.58 89.93 119.95 91.21 112.41L71.49 109.06C70.19 116.73 68.96 124.46 67.74 132.24L87.50 135.33ZM75.79 265.69C77.24 222.04 80.85 177.92 87.50 135.33L67.74 132.24C60.94 175.79 57.27 220.74 55.80 265.03L75.79 265.69ZM75.32 279.56L75.79 265.69L55.80 265.03L55.33 278.89L75.32 279.56ZM52.07 293.83C61.98 298.23 74.91 291.87 75.32 279.56L55.33 278.89C55.39 277.30 56.34 276.18 57.17 275.7C57.95 275.24 59.07 275.06 60.18 275.55L52.07 293.83ZM41.13 290.43C43.36 290.50 47.45 291.78 52.07 293.83L60.18 275.55C55.46 273.46 48.25 270.65 41.80 270.44L41.13 290.43ZM10.12 273.23C13.30 279.01 22.09 289.79 41.13 290.43L41.80 270.44C31.56 270.1 28.36 264.89 27.64 263.59L10.12 273.23ZM8.17 264.57C8.09 266.88 8.38 270.07 10.12 273.23L27.65 263.59C28.21 264.62 28.15 265.37 28.16 265.24L8.17 264.57ZM8.20 263.44L8.17 264.57L28.16 265.24L28.19 264.11L8.20 263.44ZM20.69 124.89C13.53 170.74 9.73 217.67 8.20 263.44L28.19 264.11C29.70 218.96 33.44 172.86 40.45 127.98L20.69 124.89ZM40.50 28.87C31.03 61.18 25.53 93.97 20.69 124.89L40.45 127.98C45.28 97.09 50.62 65.44 59.70 34.49L40.50 28.87ZM44.40 15.56L40.50 28.87L59.70 34.49L63.60 21.18L44.40 15.56ZM70.48 7.52C61.98 0.79 47.87 3.73 44.40 15.56L63.60 21.18C63.15 22.71 61.95 23.55 61.03 23.82C60.16 24.07 59.03 23.96 58.07 23.20L70.48 7.52ZM80.22 13.55C78.08 12.92 74.45 10.66 70.48 7.52L58.07 23.21C62.13 26.41 68.40 30.92 74.60 32.74L80.22 13.55ZM96.04 22.00C92.09 18.50 86.90 15.50 80.22 13.55L74.60 32.74C78.61 33.91 81.15 35.53 82.78 36.97L96.04 22.00ZM80.16 25.59C80.06 25.88 79.97 26.18 79.88 26.47L98.94 32.50C99.02 32.25 99.11 32.00 99.19 31.74L80.16 25.59ZM84.43 12.39L80.16 25.59L99.19 31.74L103.46 18.55L84.43 12.39ZM110.72 5.08C102.41 -1.87 88.22 0.67 84.43 12.39L103.46 18.55C102.97 20.06 101.75 20.87 100.82 21.11C99.94 21.34 98.81 21.20 97.88 20.42L110.72 5.08ZM120.29 11.38C118.17 10.69 114.6 8.33 110.72 5.08L97.88 20.42C101.84 23.74 107.99 28.42 114.13 30.41L120.29 11.38ZM145.35 36.46C143.89 30.03 138.42 17.24 120.29 11.38L114.13 30.41C123.88 33.56 125.52 39.45 125.85 40.89L145.35 36.46ZM144.84 45.32C145.55 43.13 146.15 39.99 145.36 36.47L125.85 40.89C125.59 39.74 125.85 39.05 125.82 39.17L144.84 45.32ZM95.38 217.88C95.28 217.95 95.00 218.15 94.62 218.37C94.44 218.47 94.06 218.69 93.55 218.90C93.30 219.01 91.89 219.63 89.96 219.70C88.93 219.73 86.88 219.64 84.70 218.40C82.17 216.97 80.59 214.65 79.96 212.25C79.42 210.20 79.66 208.51 79.83 207.69C80.02 206.79 80.29 206.10 80.45 205.72C81.00 204.47 81.70 203.61 81.71 203.59C82.02 203.19 82.31 202.89 82.33 202.86C82.42 202.76 82.50 202.69 82.53 202.65C82.66 202.53 82.76 202.44 82.76 202.43C82.81 202.39 82.85 202.35 82.85 202.35C82.87 202.34 82.87 202.34 82.84 202.36L96.18 217.26C96.24 217.20 96.30 217.15 96.35 217.10C96.38 217.08 96.43 217.04 96.48 216.98C96.49 216.98 96.59 216.88 96.72 216.75C96.75 216.72 96.83 216.64 96.92 216.55C96.95 216.52 97.23 216.22 97.54 215.81C97.56 215.8 98.26 214.94 98.80 213.69C98.97 213.30 99.24 212.61 99.42 211.71C99.59 210.90 99.84 209.20 99.30 207.15C98.66 204.75 97.08 202.43 94.56 201.00C92.37 199.76 90.32 199.67 89.29 199.71C87.36 199.77 85.95 200.40 85.70 200.50C85.20 200.72 84.82 200.93 84.63 201.04C84.25 201.26 83.97 201.46 83.87 201.53L95.38 217.88ZM96.32 217.13C96.33 217.12 96.33 217.12 96.31 217.14C96.31 217.14 96.28 217.16 96.25 217.19C96.24 217.21 96.20 217.24 96.15 217.28C96.12 217.30 96.07 217.35 96.00 217.41C95.97 217.43 95.91 217.48 95.83 217.55C95.79 217.58 95.73 217.62 95.67 217.67C95.60 217.72 95.49 217.80 95.36 217.90L83.90 201.51C83.65 201.68 83.47 201.82 83.42 201.86C83.34 201.92 83.28 201.97 83.25 202.00C83.18 202.06 83.12 202.11 83.10 202.13C83.05 202.17 83.00 202.21 82.98 202.23C82.94 202.27 82.90 202.30 82.88 202.33C82.82 202.38 82.76 202.43 82.70 202.48L96.32 217.13ZM114.08 238.31C114.02 238.37 114.11 238.28 114.31 238.11C114.35 238.08 114.43 238.02 114.53 237.94C114.58 237.90 114.67 237.83 114.78 237.75C114.85 237.69 115.11 237.51 115.46 237.3C115.61 237.20 116.01 236.96 116.56 236.71C116.83 236.59 117.36 236.37 118.05 236.18C118.55 236.05 120.17 235.63 122.25 235.96C124.91 236.39 128.48 238.21 130.03 242.34C131.17 245.41 130.45 247.99 130.24 248.68C129.75 250.33 128.93 251.45 128.87 251.54C128.47 252.12 128.08 252.54 128.04 252.58C127.91 252.72 127.81 252.83 127.75 252.88C127.57 253.06 127.43 253.19 127.42 253.20C127.38 253.24 127.34 253.27 127.33 253.28L114.12 238.26C114.12 238.27 113.85 238.50 113.57 238.78C113.51 238.84 113.41 238.95 113.28 239.09C113.23 239.13 112.85 239.55 112.44 240.13C112.38 240.22 111.56 241.34 111.07 242.99C110.87 243.68 110.14 246.26 111.29 249.33C112.83 253.47 116.40 255.28 119.06 255.71C121.14 256.04 122.76 255.63 123.26 255.49C123.95 255.30 124.48 255.08 124.75 254.96C125.30 254.71 125.71 254.47 125.86 254.38C126.21 254.16 126.47 253.98 126.54 253.92C126.66 253.84 126.75 253.77 126.80 253.73C126.91 253.64 126.99 253.58 127.04 253.54C127.31 253.32 127.56 253.08 127.74 252.92L114.08 238.31ZM160.21 221.40C160.22 221.19 160.23 221.02 160.23 220.91C160.24 220.81 160.25 220.72 160.25 220.65C160.26 220.53 160.27 220.43 160.28 220.37C160.29 220.26 160.30 220.18 160.31 220.14C160.32 220.06 160.33 219.99 160.34 219.97C160.34 219.92 160.35 219.88 160.35 219.87C160.36 219.84 160.36 219.84 160.36 219.85L180.00 223.59C180.02 223.49 180.04 223.40 180.06 223.31C180.06 223.26 180.07 223.20 180.08 223.13C180.09 223.10 180.10 223.03 180.11 222.94C180.12 222.90 180.13 222.81 180.14 222.70C180.15 222.64 180.16 222.54 180.17 222.42C180.18 222.34 180.21 222.05 180.21 221.67L160.21 221.40ZM180.04 223.36C180.05 223.32 180.05 223.32 180.05 223.35C180.04 223.36 180.03 223.42 180.02 223.50C180.02 223.51 179.98 223.67 179.93 223.88C179.92 223.94 179.89 224.07 179.84 224.22C179.83 224.28 179.70 224.74 179.48 225.30C179.44 225.39 179.03 226.47 178.16 227.61C177.86 228 176.41 229.92 173.63 230.93C171.97 231.54 169.83 231.81 167.53 231.17C165.31 230.55 163.77 229.31 162.83 228.28C161.19 226.49 160.69 224.61 160.57 224.17C160.37 223.46 160.30 222.88 160.27 222.60C160.21 222.02 160.21 221.56 160.21 221.40L180.21 221.67C180.21 221.51 180.22 221.05 180.16 220.47C180.13 220.19 180.05 219.61 179.86 218.9C179.74 218.46 179.23 216.58 177.60 214.79C176.66 213.76 175.11 212.52 172.89 211.90C170.6 211.26 168.45 211.53 166.79 212.14C164.01 213.15 162.56 215.07 162.27 215.46C161.40 216.60 160.99 217.68 160.95 217.77C160.72 218.33 160.6 218.79 160.58 218.85C160.54 219.00 160.51 219.13 160.49 219.19C160.44 219.40 160.41 219.57 160.40 219.59C160.38 219.68 160.37 219.77 160.36 219.80C160.35 219.89 160.33 219.99 160.31 220.08L180.04 223.36ZM177.15 167.42L177.14 167.55L197.11 168.67L197.12 168.53L177.15 167.42ZM127.32 253.29L127.5 253.14L114.32 238.09L114.14 238.25L127.32 253.29Z" fill="white"/>
<path opacity="0.65" d="M50.10 31.68L95.80 45.07L96.11 43.98C96.46 42.82 96.59 41.59 96.29 40.41C95.29 36.50 91.47 27.26 77.41 23.14C73.24 21.92 68.29 18.54 64.28 15.36C60.75 12.57 55.27 14.05 54.00 18.37L50.10 31.68ZM54.10 130.11L77.62 133.78L54.10 130.11ZM65.79 265.36L18.20 263.77L18.16 264.91C18.12 266.12 18.30 267.34 18.88 268.41C20.83 271.95 26.83 279.94 41.47 280.43C45.81 280.58 51.45 282.62 56.13 284.69C60.24 286.52 65.18 283.72 65.33 279.22L65.79 265.36ZM50.10 31.68C40.83 63.31 35.40 95.53 30.57 126.43L77.62 133.78C82.44 102.96 87.48 73.45 95.80 45.07L50.10 31.68ZM30.57 126.43C23.49 171.80 19.71 218.31 18.20 263.77L65.79 265.36C67.26 221.39 70.89 176.86 77.62 133.78L30.57 126.43Z" fill="url(#paint0_linear_1303_20052)"/>
<path opacity="0.65" d="M89.67 28.67L134.98 43.32L135.33 42.24C135.70 41.09 135.87 39.87 135.60 38.68C134.71 34.74 131.15 25.40 117.21 20.89C113.08 19.56 108.22 16.03 104.30 12.75C100.85 9.86 95.33 11.19 93.94 15.47L89.67 28.67ZM105.85 79.38L82.05 78.53L105.85 79.38ZM105.45 166.68L129.26 166.34L129.26 166.34L105.45 166.68ZM107.10 222.97L83.47 225.88L83.47 225.88L107.10 222.97ZM123.84 242.13L84.22 215.71L83.59 216.66C82.91 217.67 82.42 218.80 82.36 220.02C82.15 224.05 83.04 234.00 95.22 242.13C98.84 244.54 102.56 249.25 105.44 253.47C107.97 257.19 113.65 257.41 116.15 253.67L123.84 242.13ZM89.67 28.67C84.01 46.16 82.62 62.71 82.05 78.53L129.64 80.24C130.15 65.92 131.35 54.55 134.98 43.32L89.67 28.67ZM82.05 78.53C80.98 108.24 81.23 137.90 81.64 167.02L129.26 166.34C128.84 137.31 128.62 108.67 129.64 80.24L82.05 78.53ZM81.64 167.02C81.88 183.56 80.99 205.73 83.47 225.88L130.73 220.05C128.67 203.31 129.55 186.85 129.26 166.34L81.64 167.02ZM83.47 225.88C83.26 224.2 83.23 221.56 84.16 218.46C85.12 215.27 86.71 212.88 88.07 211.30C89.07 210.14 90.21 209.19 89.28 210.01C89.03 210.23 88.29 210.88 87.47 211.72C86.61 212.6 85.41 213.93 84.22 215.71L123.84 242.13C122.15 244.66 120.26 246.18 120.73 245.77C120.75 245.75 120.77 245.74 120.83 245.69C120.87 245.64 120.95 245.58 121.03 245.50C121.20 245.36 121.45 245.13 121.75 244.86C122.34 244.31 123.22 243.46 124.18 242.34C126.24 239.95 128.44 236.59 129.77 232.16C131.07 227.83 131.18 223.67 130.73 220.05L83.47 225.88Z" fill="url(#paint1_linear_1303_20052)"/>
<path opacity="0.65" d="M142.65 66.63L190.17 69.65L190.24 68.51C190.32 67.30 190.18 66.07 189.63 64.99C187.79 61.40 182.03 53.23 167.41 52.30C163.08 52.02 157.50 49.81 152.89 47.60C148.84 45.65 143.81 48.30 143.53 52.79L142.65 66.63ZM149.34 206.63L172.65 211.53L149.34 206.63ZM146.90 216.82L124.02 210.21L124.02 210.21L146.90 216.82ZM145.24 220.65L134.6 241.95L145.24 220.65ZM130.30 179.89L176.33 192.10L176.62 191.00C176.93 189.83 177.03 188.60 176.70 187.43C175.6 183.54 171.54 174.41 157.38 170.65C153.19 169.54 148.14 166.28 144.05 163.21C140.45 160.52 135.01 162.14 133.86 166.48L130.30 179.89ZM142.65 66.63C139.72 112.74 135.32 157.59 126.04 201.74L172.65 211.53C182.61 164.11 187.18 116.67 190.17 69.65L142.65 66.63ZM126.04 201.74C125.31 205.23 124.77 207.62 124.02 210.21L169.77 223.42C171.03 219.07 171.86 215.26 172.65 211.53L126.04 201.74ZM124.02 210.21C123.44 212.22 123.15 214.23 123.14 214.28C123.02 215.07 123.09 214.54 123.24 213.9C123.34 213.50 123.58 212.57 124.04 211.39C124.45 210.34 125.44 208.02 127.48 205.51C129.62 202.87 133.73 199.07 140.20 197.54C146.83 195.99 152.44 197.63 155.89 199.36L134.6 241.95C138.36 243.83 144.24 245.51 151.11 243.90C157.83 242.32 162.15 238.36 164.47 235.50C168.31 230.76 169.38 225.70 169.54 225.04C169.91 223.52 170.13 222.00 170.16 221.85C170.30 220.97 170.16 222.08 169.77 223.42L124.02 210.21ZM155.89 199.36C164.54 203.68 167.10 211.31 167.72 213.50C168.50 216.24 168.50 218.33 168.50 218.80C168.50 219.95 168.37 220.26 168.58 219.09C168.94 217.08 169.74 213.86 170.87 209.91C171.94 206.11 173.14 202.24 174.13 199.12C174.62 197.57 175.04 196.25 175.38 195.20C175.56 194.64 176.06 193.09 176.33 192.10L130.30 179.89C130.37 179.61 130.05 180.59 128.73 184.75C127.68 188.06 126.32 192.45 125.05 196.91C123.83 201.21 122.51 206.23 121.72 210.59C121.36 212.61 120.89 215.63 120.89 218.79C120.89 220.27 120.97 223.19 121.93 226.56C122.73 229.38 125.56 237.43 134.6 241.95L155.89 199.36Z" fill="url(#paint2_linear_1303_20052)"/>
<path opacity="0.65" d="M186.18 84.93L231.52 70.39L231.18 69.31C230.81 68.15 230.23 67.06 229.32 66.25C226.29 63.58 217.95 58.07 204.00 62.55C199.87 63.87 193.86 63.85 188.77 63.47C184.28 63.14 180.57 67.44 181.94 71.73L186.18 84.93ZM212.42 101.74L188.64 102.79L212.42 101.74ZM210.57 175.28L234.35 176.59L210.57 175.28ZM206.07 233.09L229.78 235.27L206.07 233.09ZM229.90 243.64L183.05 252.16L183.25 253.28C183.47 254.47 183.90 255.63 184.69 256.55C187.35 259.59 194.90 266.14 209.31 263.52C213.58 262.74 219.53 263.54 224.54 264.58C228.94 265.5 233.18 261.71 232.38 257.29L229.90 243.64ZM186.18 84.93C187.68 89.61 188.29 95.00 188.64 102.79L236.21 100.68C235.83 92.05 235.05 81.38 231.52 70.39L186.18 84.93ZM188.64 102.79C189.66 125.85 188.17 149.07 186.80 173.98L234.35 176.59C235.66 152.57 237.36 126.64 236.21 100.68L188.64 102.79ZM186.80 173.98C185.76 192.85 184.14 211.69 182.37 230.90L229.78 235.27C231.57 215.94 233.26 196.38 234.35 176.59L186.80 173.98ZM182.37 230.90C181.74 237.66 181.6 244.18 183.05 252.16L229.90 243.64C229.48 241.34 229.40 239.45 229.78 235.27L182.37 230.90Z" fill="url(#paint3_linear_1303_20052)"/>
<path opacity="0.65" d="M247.79 85.68L271.48 83.26L247.79 85.68ZM273.98 233.83H226.36V234.97C226.36 236.18 226.58 237.40 227.20 238.44C229.26 241.91 235.52 249.70 250.17 249.70C254.51 249.70 260.22 251.56 264.96 253.48C269.13 255.16 273.98 252.20 273.98 247.70V233.83ZM269.00 66.30C267.33 53.26 255.40 44.04 242.36 45.71C229.32 47.38 220.10 59.31 221.77 72.35L269.00 66.30ZM224.10 88.10C228.94 135.46 226.36 182.99 226.36 233.83H273.98C273.98 186.38 276.64 133.84 271.48 83.26L224.10 88.10ZM221.77 72.35C222.04 74.47 222.65 78.42 223.13 81.59C223.39 83.28 223.64 84.87 223.83 86.15C224.05 87.65 224.11 88.18 224.10 88.10L271.48 83.26C271.35 82.08 271.12 80.45 270.94 79.21C270.72 77.77 270.46 76.06 270.21 74.38C269.66 70.79 269.18 67.67 269.00 66.30L221.77 72.35Z" fill="url(#paint4_linear_1303_20052)"/>
<defs>
<linearGradient id="paint0_linear_1303_20052" x1="57.25" y1="7.01" x2="57.47" y2="264.57" gradientUnits="userSpaceOnUse">
<stop stop-color="#FF9431"/>
<stop offset="1" stop-color="#E00E01"/>
</linearGradient>
<linearGradient id="paint1_linear_1303_20052" x1="108.18" y1="36" x2="108.18" y2="228.92" gradientUnits="userSpaceOnUse">
<stop stop-color="#52FF00"/>
<stop offset="1" stop-color="#138700"/>
</linearGradient>
<linearGradient id="paint2_linear_1303_20052" x1="155.55" y1="68.14" x2="155.55" y2="220.73" gradientUnits="userSpaceOnUse">
<stop stop-color="#00F0B7"/>
<stop offset="1" stop-color="#007CA4"/>
</linearGradient>
<linearGradient id="paint3_linear_1303_20052" x1="209.25" y1="77.66" x2="209.25" y2="247.90" gradientUnits="userSpaceOnUse">
<stop stop-color="#C549FF"/>
<stop offset="1" stop-color="#8A00CC"/>
</linearGradient>
<linearGradient id="paint4_linear_1303_20052" x1="248.12" y1="69.33" x2="248.12" y2="233.83" gradientUnits="userSpaceOnUse">
<stop stop-color="#FFC700"/>
<stop offset="1" stop-color="#FF5C00"/>
</linearGradient>
</defs>
</svg>
